<svg id="Layer_1" data-name="Layer 1" xmlns="http://www.w3.org/2000/svg" viewBox="0 0 238 230"><defs><style>.cls-1{fill:#18a8bd;}.cls-2{fill:#ffa770;}.cls-3{fill:#d04cac;}.cls-4{fill:#ed3b71;}.cls-5{fill:#db72be;}.cls-6{fill:#f1638e;}.cls-7{fill:#bee2ce;}.cls-8{fill:#fbcd39;}.cls-9{fill:#fcd65f;}.cls-10{fill:#ffa973;}.cls-11{fill:#19abc1;}.cls-12{fill:#c4e5d4;}.cls-13{fill:#fbcc37;}.cls-14{fill:#ef3f77;}.cls-15{fill:#cf49aa;}</style></defs><title>MODS_LOGO</title><polygon class="cls-1" points="81.45 220.94 41.12 200.94 41.12 72.27 81.45 92.27 81.45 220.94"/><polygon class="cls-2" points="155.22 220.85 195.55 200.85 195.55 72.19 155.22 92.19 155.22 220.85"/><polygon class="cls-3" points="4.23 133.61 118.33 197.61 118.33 157.11 4.23 93.11 4.23 133.61"/><polygon class="cls-4" points="232.43 133.61 118.33 197.61 118.33 157.11 232.43 93.11 232.43 133.61"/><polygon class="cls-1" points="81 135.9 81 176.4 41 153.9 41 113.4 81 135.9"/><polygon class="cls-2" points="196 113.37 196 153.79 178.86 163.48 156 176.41 156 135.82 196 113.37"/><polygon class="cls-5" points="81.26 135.9 81.26 176.4 41 153.9 41 113.4 81.26 135.9"/><polygon class="cls-6" points="196 113.37 196 153.79 178.75 163.48 155.74 176.32 155.74 135.82 196 113.37"/><polygon class="cls-7" points="195.55 28.38 81.45 92.38 41.12 72.27 155.55 8.88 195.55 28.38"/><polygon class="cls-8" points="41.12 28.38 155.22 92.38 195.55 72.27 81.12 8.88 41.12 28.38"/><polygon class="cls-9" points="156.18 50.55 118.34 71.78 80.49 50.55 118.34 29.59 156.18 50.55"/><polygon class="cls-9" points="156.18 50.55 118.34 71.78 80.49 50.55 118.34 29.59 156.18 50.55"/><polygon class="cls-10" points="80.2 50.43 41 72.27 41.12 28.38 80.2 50.43"/><polygon class="cls-11" points="156 50.22 195.2 28.38 195.38 72.36 156 50.22"/><polygon class="cls-12" points="118.33 197.61 81 221.27 81.45 176.92 118.33 197.61"/><polygon class="cls-13" points="118.33 197.61 155.2 176.92 155.22 220.85 118.33 197.61"/><polygon class="cls-14" points="41.12 72.27 41.12 113.8 4.23 93.11 41.12 72.27"/><polygon class="cls-15" points="195.55 113.8 195.55 72.19 232.43 93.11 195.55 113.8"/></svg>